<svg width="812" height="812" viewBox="0 0 812 812" fill="none" xmlns="http://www.w3.org/2000/svg">
<path fill-rule="evenodd" clip-rule="evenodd" d="M81.3689 352.715C79.6692 320.527 90.8133 287.76 114.801 263.173L188.464 187.668C203.257 172.505 220.789 160.795 239.868 153.045C252.621 145.929 267.022 142.1 281.815 142.1H295.792H516.209H530.187C544.977 142.1 559.381 145.929 572.132 153.045C591.213 160.795 608.743 172.505 623.538 187.668L697.198 263.173C721.186 287.76 732.332 320.527 730.631 352.714C732.332 384.903 721.19 417.672 697.198 442.26L519.567 624.334C488.342 656.34 446.898 671.484 406 669.769C365.103 671.484 323.657 656.34 292.432 624.334L114.801 442.26C90.8123 417.672 79.6682 384.903 81.3689 352.715ZM281.816 220.492H516.209C536.182 220.492 555.334 228.624 569.459 243.099L643.12 318.603C658.054 333.91 658.054 358.728 643.12 374.035C628.186 389.342 603.975 389.342 589.042 374.035L537.779 321.492C523.654 307.016 504.502 298.884 484.53 298.884H424.606C418.317 298.884 415.167 306.679 419.614 311.237L508.753 402.604C538.162 432.747 538.162 481.619 508.753 511.762L453.009 568.899C423.601 599.044 375.921 599.044 346.513 568.899L168.881 386.827C153.948 371.52 153.948 346.702 168.881 331.395C183.815 316.088 208.028 316.088 222.961 331.395L372.721 484.899C387.655 500.206 411.867 500.206 426.801 484.899C441.735 469.592 441.735 444.775 426.801 429.467L273.732 272.572C260.632 259.144 260.649 237.369 273.771 223.963C275.887 221.743 278.787 220.492 281.816 220.492Z" fill="#4B4DED"/>
</svg>
